<?xml version='1.0' encoding='utf-8'?>
<svg xmlns="http://www.w3.org/2000/svg" version="1.2" width="384" height="384" baseProfile="tiny-ps" viewBox="0 0 384 384">
<title>UrgentRecruite</title><path d="M0 0 C126.72 0 253.44 0 384 0 C384 126.72 384 253.44 384 384 C257.28 384 130.56 384 0 384 C0 257.28 0 130.56 0 0 Z " fill="#FEFEFE" transform="translate(0,0)" />
<path d="M0 0 C14.18 -0.07 28.36 -0.12 42.54 -0.16 C49.12 -0.17 55.71 -0.19 62.29 -0.23 C68.66 -0.26 75.03 -0.28 81.39 -0.28 C83.81 -0.29 86.23 -0.3 88.65 -0.32 C115.47 -0.49 142.41 2.31 162.82 21.75 C174.36 33.15 182.87 46.92 186 63 C186.09 63.44 186.09 63.44 186.55 65.65 C188.35 79.05 187.59 92.99 184 106 C183.66 107.24 183.32 108.48 182.97 109.76 C180.16 118.99 176.07 126.84 171 135 C168 134 168 134 166.86 132.18 C166.49 131.42 166.13 130.66 165.75 129.88 C160.88 120.73 154.31 116.35 144.81 112.81 C139.25 111.63 133.67 111.32 128 111 C129.15 108.02 130.39 105.22 131.94 102.44 C138.11 90.06 138.78 75.98 135.05 62.76 C130.99 52.08 123.01 45.05 113 40 C105.17 36.98 97.34 35.87 88.96 35.89 C88.3 35.89 87.63 35.89 86.95 35.89 C84.78 35.89 82.61 35.89 80.44 35.9 C78.93 35.9 77.41 35.91 75.9 35.91 C71.93 35.91 67.96 35.92 64 35.93 C59.94 35.94 55.89 35.95 51.83 35.95 C43.89 35.96 35.94 35.98 28 36 C27.91 36.56 27.91 36.56 27.47 39.37 C27.22 40.84 26.97 42.3 26.72 43.77 C26.61 44.5 26.5 45.23 26.38 45.99 C25.63 50.28 24.91 52.95 21.44 55.69 C20.29 56.46 19.15 57.23 18 58 C15.17 62.42 15.43 67.91 16 73 C16.75 74.96 16.75 74.96 17.62 76.69 C19.41 81 18.48 82.64 17 87 C16.92 88.58 16.86 90.17 16.81 91.75 C16.38 97.38 13.78 100.99 10.5 105.46 C8.83 108.29 8.49 109.77 9 113 C9.78 113.58 10.57 114.16 11.38 114.75 C15.12 117.96 15.48 121.22 16 126 C16.01 127.4 15.99 128.79 15.94 130.19 C16.01 134.37 16.76 136.51 19 140 C22.41 142.27 24.66 142.57 28.69 143.12 C29.28 143.21 29.28 143.21 32.26 143.63 C33.17 143.75 34.07 143.88 35 144 C35 144.66 35 145.32 35 146 C33.01 147.48 31.04 148.81 28.94 150.12 C28.31 150.52 27.69 150.92 27.05 151.33 C21.88 154.57 16.54 157.47 11.06 160.17 C4.74 163.38 1.14 166.75 -1.26 173.48 C-2.8 178.76 -3.53 184.19 -4.36 189.62 C-4.57 190.98 -4.79 192.34 -5 193.7 C-7.53 209.98 -9.72 226.3 -11.92 242.62 C-12.8 249.16 -13.69 255.69 -14.58 262.23 C-14.88 264.48 -15.19 266.73 -15.49 268.99 C-15.68 270.36 -15.86 271.73 -16.05 273.11 C-16.21 274.3 -16.37 275.49 -16.53 276.72 C-16.97 279.82 -17.47 282.91 -18 286 C-21.48 286.03 -24.96 286.05 -28.44 286.06 C-29.43 286.07 -30.42 286.08 -31.45 286.09 C-31.92 286.09 -31.92 286.09 -34.31 286.1 C-34.75 286.1 -34.75 286.1 -36.96 286.11 C-39 286 -39 286 -40 285 C-40.14 282.95 -40.21 280.89 -40.26 278.83 C-40.27 278.18 -40.29 277.53 -40.3 276.86 C-40.34 274.68 -40.38 272.5 -40.41 270.32 C-40.42 269.95 -40.42 269.95 -40.45 268.04 C-40.54 262.26 -40.59 256.47 -40.62 250.69 C-40.63 249.84 -40.64 248.99 -40.64 248.11 C-40.79 219.12 -38.41 191.88 -32.18 163.48 C-31.05 158.32 -30.05 153.14 -29.09 147.94 C-28.94 147.15 -28.8 146.36 -28.65 145.55 C-28.37 144 -28.08 142.45 -27.8 140.9 C-27.11 137.18 -26.39 133.47 -25.67 129.75 C-24.08 121.5 -22.56 113.24 -21.05 104.97 C-17.89 87.67 -14.61 70.39 -11.28 53.12 C-9.54 44.1 -7.82 35.08 -6.16 26.04 C-6.09 25.66 -6.09 25.66 -5.74 23.75 C-5.1 20.28 -4.47 16.81 -3.85 13.34 C-3.63 12.15 -3.42 10.96 -3.19 9.74 C-3.1 9.23 -3.1 9.23 -2.64 6.65 C-2.04 4.15 -1.18 2.26 0 0 Z " fill="#3184DE" transform="translate(117,48)" />
<path d="M0 0 C3.28 0.59 5.01 1.62 7.44 3.88 C9.64 5.88 11.23 7.11 13.94 8.44 C16 10 16 10 16.62 13.31 C16.01 16.93 15.78 17.6 13.5 20.12 C11 23 11 23 10.31 25.62 C11.36 29.25 13.82 30.21 17 32 C16.65 32.6 16.3 33.21 15.94 33.83 C15.49 34.63 15.03 35.43 14.56 36.25 C14.11 37.04 13.66 37.83 13.19 38.64 C10.36 44.26 11.07 49.51 11.36 55.69 C10.93 59.68 9.84 60.35 7 63 C6.57 65.47 6.57 65.47 6.69 68.06 C6.71 68.92 6.74 69.78 6.76 70.66 C7 73 7 73 8 76 C6.96 76.47 5.93 76.95 4.86 77.43 C3.49 78.1 2.12 78.77 0.75 79.44 C0.07 79.74 -0.61 80.05 -1.32 80.37 C-6.24 82.83 -8.32 85.39 -10.26 90.53 C-11.51 94.71 -12.33 98.88 -13 103.19 C-13.16 104.15 -13.32 105.12 -13.49 106.11 C-14.46 112.09 -15.29 118.09 -16.07 124.1 C-16.16 124.78 -16.25 125.47 -16.34 126.17 C-16.78 129.55 -17.2 132.94 -17.61 136.32 C-17.68 136.94 -17.68 136.94 -18.07 140.05 C-18.2 141.15 -18.33 142.25 -18.47 143.38 C-19 146 -19 146 -21 148 C-23.75 148.24 -23.75 148.24 -27.29 148.23 C-27.93 148.23 -28.57 148.23 -29.24 148.23 C-31.37 148.23 -33.5 148.21 -35.63 148.2 C-37.11 148.19 -38.59 148.19 -40.06 148.19 C-43.95 148.18 -47.84 148.16 -51.73 148.14 C-55.7 148.12 -59.67 148.11 -63.64 148.1 C-71.42 148.08 -79.21 148.04 -87 148 C-88.04 143.95 -87.9 140.69 -87.35 136.56 C-87.18 135.27 -87.02 133.98 -86.84 132.66 C-86.65 131.25 -86.46 129.84 -86.27 128.44 C-86.08 126.97 -85.88 125.5 -85.69 124.03 C-85.18 120.14 -84.65 116.25 -84.13 112.36 C-83.61 108.52 -83.11 104.68 -82.6 100.83 C-81.7 94.06 -80.79 87.29 -79.88 80.52 C-79.3 76.25 -78.73 71.98 -78.18 67.7 C-77.75 64.45 -77.32 61.19 -76.89 57.94 C-76.74 56.79 -76.59 55.63 -76.44 54.45 C-73.7 34 -73.7 34 -68 29 C-64.64 26.95 -61.16 25.18 -57.62 23.44 C-42.09 15.64 -42.09 15.64 -39 11 C-38.34 11 -37.68 11 -37 11 C-37.99 16.29 -39.34 21.02 -41.38 26 C-46.15 38.02 -49.15 51.24 -49.12 64.19 C-49.13 65.38 -49.13 66.57 -49.13 67.79 C-49.02 70.44 -48.69 72.48 -48 75 C-47.87 74.33 -47.75 73.65 -47.62 72.96 C-45.12 59.67 -42.35 46.81 -38 34 C-37.39 32 -36.78 30 -36.19 28 C-35.95 27.22 -35.72 26.43 -35.48 25.62 C-35.32 25.09 -35.16 24.55 -35 24 C-36.32 24.33 -37.64 24.66 -39 25 C-36.84 19.91 -35.31 16.36 -30 14 C-24.89 19.76 -24.89 19.76 -25 24 C-25.81 24.59 -26.62 25.18 -27.45 25.79 C-30.45 28.64 -30.47 31.37 -30.71 35.39 C-30.77 37.87 -30.8 40.34 -30.81 42.81 C-30.84 44.08 -30.86 45.34 -30.89 46.65 C-30.95 49.76 -30.98 52.88 -31 56 C-29.46 53.08 -27.92 50.17 -26.38 47.25 C-25.92 46.38 -25.46 45.51 -24.99 44.62 C-22.5 39.9 -20.08 35.17 -17.75 30.38 C-15.66 26.16 -13.33 22.3 -10.65 18.43 C-8.58 15.38 -6.63 12.26 -4.69 9.12 C-4.01 8.03 -3.33 6.94 -2.64 5.82 C-1 3 -1 3 0 0 Z " fill="#061C39" transform="translate(195,187)" />
<path d="M0 0 C0 1.32 0 2.64 0 4 C-4.29 4.99 -8.58 5.98 -13 7 C-14.74 16.64 -14.74 16.64 -11.5 21.44 C-11.02 22.05 -10.53 22.67 -10.03 23.31 C-9.69 23.87 -9.35 24.42 -9 25 C-10 28 -10 28 -11.48 29.22 C-14.13 32.32 -14.13 36.61 -14.64 40.55 C-15.2 43.99 -15.64 45.69 -18.31 48 C-24.95 50.46 -32.54 46.61 -38.77 44.1 C-41.09 42.96 -42.99 41.61 -45 40 C-45 40.66 -45 41.32 -45 42 C-44.43 42.29 -43.86 42.57 -43.27 42.87 C-41.55 43.72 -41.55 43.72 -33 48 C-33.66 51.96 -34.32 55.92 -35 60 C-34.34 60 -33.68 60 -33 60 C-31.27 66.68 -30.74 72.68 -30.88 79.56 C-30.88 80.48 -30.89 81.39 -30.9 82.33 C-30.93 84.55 -30.96 86.78 -31 89 C-34.29 86.81 -34.49 86.18 -35.88 82.69 C-38.25 77.68 -41.37 74.3 -45.31 70.5 C-59 57.3 -59 57.3 -61.06 50.5 C-60.98 45.96 -60.59 41.5 -60 37 C-61.32 36.34 -62.64 35.68 -64 35 C-63.75 35.55 -63.5 36.09 -63.24 36.65 C-61.01 42.14 -60.83 45.42 -62.95 50.96 C-64 53 -64 53 -65.63 54.89 C-67.52 57.8 -67.13 59.59 -66.75 63 C-66.63 64.14 -66.52 65.28 -66.39 66.45 C-66.26 67.62 -66.13 68.79 -66 70 C-65.81 72.27 -65.62 74.54 -65.44 76.81 C-65.29 78.54 -65.15 80.27 -65 82 C-58.74 79.79 -53.84 77.59 -49 73 C-45.64 74.39 -43.93 75.92 -42 79 C-42 79.66 -42 80.32 -42 81 C-43.65 80.34 -45.3 79.68 -47 79 C-47 78.34 -47 77.68 -47 77 C-47.99 77.99 -48.98 78.98 -50 80 C-48.86 82.17 -47.71 84.33 -46.56 86.5 C-46.2 87.17 -45.85 87.85 -45.48 88.55 C-43.25 92.73 -40.94 96.86 -38.57 100.97 C-35.06 107.06 -31.84 113.19 -29 119.62 C-28.71 120.28 -28.42 120.93 -28.12 121.6 C-26.5 125.37 -25.39 128.9 -25 133 C-26.75 134.75 -29.02 134.13 -31.35 134.14 C-32.11 134.13 -32.88 134.13 -33.67 134.13 C-34.47 134.13 -35.28 134.13 -36.1 134.13 C-38.77 134.14 -41.44 134.14 -44.11 134.13 C-45.96 134.13 -47.81 134.13 -49.66 134.14 C-53.55 134.14 -57.43 134.14 -61.32 134.13 C-66.3 134.12 -71.28 134.13 -76.26 134.13 C-80.08 134.14 -83.9 134.14 -87.73 134.13 C-89.56 134.13 -91.4 134.13 -93.24 134.14 C-95.81 134.14 -98.37 134.13 -100.94 134.13 C-101.7 134.13 -102.46 134.13 -103.25 134.14 C-106.64 134.12 -109.76 134.07 -113 133 C-112.66 123.03 -111.46 113.2 -110.12 103.31 C-110.04 102.7 -110.04 102.7 -109.64 99.61 C-106.42 76.46 -106.42 76.46 -101 72 C-97.67 70.31 -94.25 68.98 -90.75 67.69 C-89.81 67.33 -88.88 66.97 -87.91 66.6 C-85.61 65.72 -83.31 64.85 -81 64 C-81.96 63.54 -82.92 63.09 -83.91 62.62 C-87 61 -87 61 -88.38 59.12 C-89.14 56.52 -89.41 54.69 -89 52 C-87.06 50.31 -87.06 50.31 -85 49 C-83.65 46.3 -84.37 44.92 -85 42 C-85.65 34.8 -85.42 29.85 -81 24 C-80.09 23.34 -79.19 22.68 -78.25 22 C-76 20 -76 20 -75.69 16.25 C-75.74 15.71 -75.74 15.71 -76 13 C-78.31 13 -80.62 13 -83 13 C-83.33 12.01 -83.66 11.02 -84 10 C-67.44 5.94 -51.99 3.54 -34.94 3.81 C-33.28 3.83 -31.62 3.84 -29.97 3.85 C-25.98 3.89 -21.99 3.94 -18 4 C-18.64 3.98 -18.64 3.98 -21.87 3.85 C-23.54 3.78 -25.21 3.7 -26.88 3.62 C-27.72 3.59 -28.56 3.56 -29.43 3.53 C-29.83 3.51 -29.83 3.51 -31.87 3.41 C-32.61 3.38 -33.35 3.35 -34.12 3.32 C-36 3 -36 3 -38 1 C-34.88 0.32 -31.75 -0.34 -28.62 -1 C-28.19 -1.1 -28.19 -1.1 -25.99 -1.58 C-16.57 -3.53 -8.88 -3.95 0 0 Z " fill="#061D3B" transform="translate(296,201)" />
<path d="M0 0 C0.54 0.16 1.08 0.32 1.63 0.49 C4.45 1.1 7.05 1.13 9.94 1.12 C10.96 1.13 11.98 1.13 13.03 1.13 C16 1 16 1 18.3 0.51 C22.3 -0.25 26.25 -0.27 30.31 -0.31 C31.13 -0.34 31.95 -0.37 32.79 -0.4 C38.67 -0.46 43.1 0.66 48 4 C50.12 6.44 50.12 6.44 52 9 C53.01 9.8 54.02 10.61 55.06 11.44 C59.47 15.28 61.01 18.94 61.88 24.62 C62.56 34.89 58.6 43.52 53.78 52.31 C50.79 57.86 49.43 63.08 50.44 69.44 C50.62 70.61 50.81 71.79 51 73 C44.97 77.51 38.85 81.86 32.56 86 C32.27 86.2 32.27 86.2 30.77 87.2 C27.46 89.35 26.07 90 22 90 C20.03 86.55 19.23 83.12 18.38 79.25 C18.11 78.08 17.85 76.91 17.59 75.7 C17.39 74.81 17.2 73.92 17 73 C15.94 73.02 14.88 73.05 13.79 73.07 C12.4 73.09 11.01 73.11 9.62 73.12 C8.93 73.14 8.23 73.16 7.51 73.18 C5.67 73.19 3.83 73.1 2 73 C0 71 0 71 -0.06 67.69 C-0.04 66.47 -0.02 65.25 0 64 C-0.29 62.33 -0.63 60.66 -1 59 C-1.04 58.4 -1.04 58.4 -1.25 55.38 C-2 52 -2 52 -4.56 50.06 C-4.96 49.89 -4.96 49.89 -7 49 C-5.93 45.97 -4.83 43.78 -2.88 41.19 C-0.89 37.81 -0.89 36.24 -1.12 32.43 C-0.85 27.11 1.29 22.01 3 17 C2.36 16.38 1.72 15.76 1.06 15.12 C-1.64 12.34 -1.97 11.56 -2.19 7.62 C-2.02 4.33 -1.74 2.72 0 0 Z " fill="#061C39" transform="translate(141,110)" />
<path d="M0 0 C6.27 5.28 10.55 11.42 12.75 19.31 C12.79 21.31 12.8 23.31 12.75 25.31 C11.62 25.5 10.5 25.69 9.34 25.89 C4.1 26.78 -1.14 27.67 -6.38 28.56 C-7.31 28.72 -8.25 28.88 -9.21 29.05 C-20.88 31.03 -32.53 33.03 -44.15 35.25 C-47.61 35.89 -50.72 36.31 -54.25 36.31 C-53.92 35.32 -53.59 34.33 -53.25 33.31 C-53.04 31.48 -52.84 29.65 -52.66 27.82 C-51.56 17.12 -49.5 9.59 -41.39 2.04 C-28.56 -8.29 -13.99 -7.26 0 0 Z " fill="#122C4C" transform="translate(269.25,171.6875)" />
<path d="M0 0 C3.29 2.76 6.51 5.47 9.44 8.62 C13.31 12.21 17.63 14.14 22.56 15.93 C23.43 16.24 24.3 16.55 25.19 16.88 C25.99 17.14 26.78 17.41 27.61 17.68 C31.04 19.57 33.23 21.53 35 25 C36.12 29.54 36.62 34.11 37.12 38.75 C37.44 41.36 37.76 43.97 38.09 46.59 C38.24 47.85 38.39 49.12 38.55 50.43 C39.23 55.8 40.15 61.13 41.14 66.46 C41.89 70.69 42.2 74.7 42 79 C40.36 80.64 38.46 80.13 36.2 80.13 C35.22 80.13 34.24 80.14 33.24 80.14 C32.21 80.13 31.18 80.13 30.12 80.12 C29.11 80.13 28.09 80.13 27.04 80.14 C26.06 80.14 25.08 80.13 24.07 80.13 C23.62 80.13 23.62 80.13 21.34 80.13 C19 80 19 80 16 79 C16.02 78.35 16.04 77.7 16.06 77.03 C16.43 63.91 16.28 52.51 12 40 C11.29 37.54 10.58 35.08 9.88 32.62 C8.93 29.41 8.93 29.41 8 27 C7.34 26.67 6.68 26.34 6 26 C6.33 24.68 6.66 23.36 7 22 C10.44 22 11.75 22.8 14.69 24.5 C15.09 24.73 15.09 24.73 17.14 25.91 C17.75 26.27 18.37 26.63 19 27 C16.98 24.33 14.96 21.66 12.94 19 C12.38 18.26 11.81 17.51 11.24 16.75 C7.35 11.64 3.28 6.77 -1 2 C-0.67 1.34 -0.34 0.68 0 0 Z " fill="#082242" transform="translate(263,255)" />
<path d="M0 0 C0 1.32 0 2.64 0 4 C-4.62 4.99 -9.24 5.98 -14 7 C-14 6.34 -14 5.68 -14 5 C-16.8 4.22 -19.36 3.85 -22.26 3.75 C-23.05 3.72 -23.84 3.69 -24.65 3.65 C-26.31 3.59 -27.96 3.54 -29.62 3.48 C-30.41 3.45 -31.2 3.41 -32.01 3.38 C-32.73 3.35 -33.44 3.33 -34.18 3.3 C-36 3 -36 3 -38 1 C-34.88 0.32 -31.75 -0.34 -28.62 -1 C-28.19 -1.1 -28.19 -1.1 -25.99 -1.58 C-16.57 -3.53 -8.88 -3.95 0 0 Z " fill="#113E72" transform="translate(296,201)" />
</svg>